/* XPM */
/*
 * Copyright (C) 1997 Yuuichi Teranishi <teranisi@isl.ntt.co.jp> 
 * Copyright (C) 1997 Kazuhiko Yamamoto <kazu@is.aist-nara.ac.jp>
 */
static char * mew_yank_xpm[] = {
"28 28 4 1",
" 	s backgroundToolBarColor	c None",
".	c black",
"X	c white",
"o	c Gray60",
"                            ",
" ....................       ",
" .XXXXXXXXXXXXXXXXXX.       ",
" .XXXXXXXXXXXXX...XX.       ",
" .XXXXXXXXXXXXX.o.XX.       ",
" .XXX........XX...XX......  ",
" .XXXXXXXXXXXXXXXXXX.XXXX.  ",
" .XXX........XXX.XXX.XXXX.  ",
" .XXXXXXXXXXXXX.X.XX.XXXX.  ",
" .X.XXXXXXXXXXXX.XXX.XXXX.o ",
" .X.XXXXXXXXXXXXXXXX.XXXX.o ",
" ....................XXXX.o ",
"  o.oo.XXXXXXXXXXXXXXXXXX.o ",
"   .  .X.XXXXXX......XXXX.o ",
"   .  .X..XXXXXXXXXXXXXXX.o ",
"   ........XXXX......XXXX.o ",
"      .X..XXXXXXXXXXXX....o ",
"      .X.XXXXXX......X.X.o  ",
"      .XXXXXXXXXXXXXXX..o   ",
"      .................o    ",
"       oooooooooooooooo     ",
" .  .      .      .       . ",
" .. .      .      .    .  . ",
" .. .  .   .   .. ..  . . . ",
" . .. . .  .  . . . . ... . ",
" . .. . .  .  . . . . .   . ",
" .  .  .   ... .. ..   .. . ",
"                            "};
