/* XPM */
/*
 * Copyright (C) 1997 Yuuichi Teranishi <teranisi@isl.ntt.co.jp> 
 * Copyright (C) 1997 Kazuhiko Yamamoto <kazu@is.aist-nara.ac.jp>
 */
static char * mew_refile_xpm[] = {
"28 28 4 1",
" 	s backgroundToolBarColor	c None",
".	c black",
"X	c white",
"o	c Gray60",
"                            ",
"                   ..       ",
"                  .XX.      ",
"                o.XXXX.     ",
"                .XXXXXX.    ",
"               .XXXX.XX.    ",
"              .XXXX.XX.     ",
"             .XXXX.XX.      ",
"       ....  .X XXXX.       ",
"      .XXXX.. .XXXX.        ",
"     .XooooX..........      ",
"     .XoooooXXXXXXXX..      ",
"     .Xooooooooooooo..      ",
"     .Xooooooooooooo..      ",
"     .Xooooooooooooo..      ",
"     .Xooooooooooooo..      ",
"     .Xooooooooooooo..      ",
"     .Xooooooooooooo..      ",
"     .Xooooooooooooo..      ",
"     .X...............      ",
"     .................      ",
"                            ",
"     ...        .. .        ",
"     .  .  .   .   .  .     ",
"     .  . . . .... . . .    ",
"     ...  ...  . . . ...    ",
"     .  . .    . . . .      ",
"     .  .  ..  . . .  ..    "};
