/* XPM */
/*
 * Copyright (C) 1997 Yuuichi Teranishi <teranisi@isl.ntt.co.jp> 
 * Copyright (C) 1997 Kazuhiko Yamamoto <kazu@is.aist-nara.ac.jp>
 */
static char * mew_show_xpm[] = {
"28 28 4 1",
" 	s backgroundToolBarColor	c None",
".	c black",
"X	c Gray60",
"o	c white",
"                            ",
"         .............      ",
"        ..Xoooooooooo.X     ",
"       .o.Xoooooooooo.X     ",
"      .oo.Xoooooooooo.X     ",
"     .............ooo.X     ",
"     .XXXXXoooooooooo.X     ",
"     .ooooooooooooooo.X     ",
"     .oo..........ooo.X     ",
"     .ooooooooooooooo.X     ",
"     .ooooooooooooooo.X     ",
"     .oo..........ooo.X     ",
"     .ooooooooooooooo.X     ",
"     .ooooooooooooooo.X     ",
"     .oo..........ooo.X     ",
"     .ooooooooooooooo.X     ",
"     .ooooooooooooooo.X     ",
"     .ooooooooooooooo.X     ",
"     .ooooooooooooooo.X     ",
"     .................X     ",
"      XXXXXXXXXXXXXXXXX     ",
"                            ",
"     ... .                  ",
"    .    .     ..  . . .    ",
"    ...  ...  .  . . . .    ",
"       . .  . .  . . . .    ",
"       . .  . .  .  . .     ",
"    ...  .  .  ..   . .     "};
