#define lookup-demo_width 360
#define lookup-demo_height 120
static char lookup-demo_bits[] = {
  0x00, 0x00, 0x00, 0x00, 0x00, 0x00, 0x00, 0x00, 0x00, 0x00, 0x00, 0x00, 
  0x00, 0x00, 0x00, 0x00, 0x00, 0x00, 0x00, 0x00, 0x00, 0x00, 0x00, 0x00, 
  0x00, 0x00, 0x00, 0x00, 0x00, 0x00, 0x00, 0x00, 0x00, 0x00, 0x00, 0x00, 
  0x00, 0x00, 0x00, 0x00, 0x00, 0x00, 0x00, 0x00, 0x00, 0x00, 0x00, 0x00, 
  0x00, 0x00, 0x00, 0x00, 0x00, 0x00, 0x00, 0x00, 0x00, 0x00, 0x00, 0x00, 
  0x00, 0x00, 0x00, 0x00, 0x00, 0x00, 0x00, 0x00, 0x00, 0x00, 0x00, 0x00, 
  0x00, 0x00, 0x00, 0x00, 0x00, 0x00, 0x00, 0x00, 0x00, 0x00, 0x00, 0x00, 
  0x00, 0x00, 0x00, 0x00, 0x00, 0x00, 0x00, 0x00, 0x00, 0x00, 0x00, 0x00, 
  0x00, 0x00, 0x00, 0x00, 0x00, 0x00, 0x00, 0x00, 0x00, 0x00, 0x00, 0x00, 
  0x00, 0x00, 0x00, 0x00, 0x00, 0x00, 0x00, 0x00, 0x00, 0x00, 0x00, 0x00, 
  0x00, 0x00, 0x00, 0x00, 0x00, 0x00, 0x00, 0x00, 0x00, 0x00, 0x00, 0x00, 
  0x00, 0x00, 0x00, 0x00, 0x00, 0x00, 0x00, 0x00, 0x00, 0x00, 0x00, 0x00, 
  0x00, 0x00, 0x00, 0x00, 0x00, 0x00, 0x00, 0x00, 0x00, 0x00, 0x00, 0x00, 
  0x00, 0x00, 0x00, 0x00, 0x00, 0x00, 0x00, 0x00, 0x00, 0x00, 0x00, 0x00, 
  0x00, 0x00, 0x00, 0x00, 0x00, 0x00, 0x00, 0x00, 0x00, 0x00, 0x00, 0x00, 
  0x00, 0x00, 0x00, 0x00, 0x00, 0x00, 0x00, 0x00, 0x00, 0x00, 0x00, 0x00, 
  0x00, 0x00, 0x00, 0x00, 0x00, 0x00, 0x00, 0x00, 0x00, 0x00, 0x00, 0x00, 
  0x00, 0x00, 0x00, 0x00, 0x00, 0x00, 0x00, 0x00, 0x00, 0x00, 0x00, 0x00, 
  0x00, 0x00, 0x00, 0x00, 0x00, 0x00, 0x00, 0x00, 0x00, 0x00, 0x00, 0x00, 
  0x00, 0x00, 0x00, 0x00, 0x00, 0x00, 0x00, 0x00, 0x00, 0x00, 0x00, 0x00, 
  0x00, 0x00, 0x00, 0x00, 0x00, 0x00, 0x00, 0x00, 0x00, 0x00, 0x00, 0x00, 
  0x00, 0x00, 0x00, 0x00, 0x00, 0x00, 0x00, 0x00, 0x00, 0x00, 0x00, 0x00, 
  0x00, 0x00, 0x00, 0x00, 0x00, 0x00, 0x00, 0x00, 0x00, 0x00, 0x00, 0x00, 
  0x00, 0x00, 0x00, 0x00, 0x00, 0x00, 0x00, 0x00, 0x00, 0x00, 0x00, 0x00, 
  0x00, 0x00, 0x00, 0x00, 0x00, 0x00, 0x00, 0x00, 0x00, 0x00, 0x00, 0x00, 
  0x00, 0x00, 0x00, 0x00, 0x00, 0x00, 0x00, 0x00, 0x00, 0x00, 0x00, 0x00, 
  0x00, 0x00, 0x00, 0x00, 0x00, 0x00, 0x00, 0x00, 0x00, 0x00, 0x00, 0x00, 
  0x00, 0x00, 0x00, 0x00, 0x00, 0x00, 0x00, 0x00, 0x00, 0x00, 0x00, 0x00, 
  0x00, 0x00, 0x00, 0x00, 0x00, 0x00, 0x00, 0x00, 0x00, 0x00, 0x00, 0x00, 
  0x00, 0x00, 0x00, 0x00, 0x00, 0x00, 0x00, 0x00, 0x00, 0x00, 0x00, 0x00, 
  0x00, 0x00, 0x00, 0x00, 0x00, 0x00, 0x00, 0x00, 0x00, 0x00, 0x00, 0x00, 
  0x00, 0x00, 0x00, 0x00, 0x00, 0x00, 0x00, 0x00, 0x00, 0x00, 0x00, 0x00, 
  0x00, 0x00, 0x00, 0x00, 0x00, 0x00, 0x00, 0x00, 0x00, 0x00, 0x00, 0x00, 
  0x00, 0x00, 0x00, 0x00, 0x00, 0x00, 0x00, 0x00, 0x00, 0x00, 0x00, 0x00, 
  0x00, 0x00, 0x00, 0x00, 0x00, 0x00, 0x00, 0x00, 0x00, 0x00, 0x00, 0x00, 
  0x00, 0x00, 0x00, 0x00, 0x00, 0x00, 0x00, 0x00, 0x00, 0x00, 0x00, 0x00, 
  0x00, 0x00, 0x00, 0x00, 0x00, 0x00, 0x00, 0x00, 0x00, 0x00, 0x00, 0x00, 
  0x00, 0x00, 0x00, 0x00, 0x00, 0x00, 0x00, 0x00, 0x00, 0x00, 0x00, 0x00, 
  0x00, 0x00, 0x00, 0x00, 0x00, 0x00, 0x00, 0x00, 0x00, 0x00, 0x00, 0x00, 
  0x00, 0x00, 0x00, 0x00, 0x00, 0x00, 0x00, 0x00, 0x00, 0x00, 0x00, 0x00, 
  0x00, 0x00, 0x00, 0x00, 0x00, 0x00, 0x00, 0x00, 0x00, 0x00, 0x00, 0x00, 
  0x00, 0x00, 0x00, 0x00, 0x00, 0x00, 0x00, 0x00, 0x00, 0x00, 0x00, 0x00, 
  0x00, 0x00, 0x00, 0x00, 0x00, 0x00, 0x00, 0x00, 0x00, 0x00, 0x00, 0x00, 
  0x00, 0x00, 0x00, 0x00, 0x00, 0x00, 0x00, 0x00, 0x00, 0x00, 0x00, 0x00, 
  0x00, 0x00, 0x00, 0x00, 0x00, 0x00, 0x00, 0x00, 0x00, 0x00, 0x00, 0x00, 
  0x00, 0x00, 0x00, 0x00, 0x00, 0x00, 0x00, 0x00, 0x00, 0x00, 0x00, 0x00, 
  0x00, 0x00, 0x00, 0x00, 0x00, 0x00, 0x00, 0x00, 0x00, 0x00, 0x00, 0x00, 
  0x00, 0x00, 0x00, 0x00, 0x00, 0x00, 0x00, 0x00, 0x00, 0x00, 0x00, 0x00, 
  0x00, 0x00, 0x00, 0x00, 0x00, 0x00, 0x00, 0x00, 0x00, 0x00, 0x00, 0x00, 
  0x00, 0x00, 0x00, 0x00, 0x00, 0x00, 0x00, 0x00, 0x00, 0x00, 0x00, 0x00, 
  0x00, 0x00, 0x00, 0x00, 0x00, 0x00, 0x00, 0x00, 0x00, 0x00, 0x00, 0x00, 
  0x00, 0x00, 0x00, 0x00, 0x00, 0x00, 0x00, 0x00, 0x00, 0x00, 0x00, 0x00, 
  0x00, 0x00, 0x00, 0x00, 0x00, 0x00, 0x00, 0x00, 0x00, 0x00, 0x00, 0x00, 
  0x00, 0x00, 0x00, 0x00, 0x00, 0x00, 0x00, 0x00, 0x00, 0x00, 0x00, 0x00, 
  0x00, 0x00, 0x00, 0x80, 0x01, 0x00, 0x00, 0x00, 0x00, 0x00, 0x00, 0x00, 
  0x00, 0x00, 0x00, 0x00, 0x00, 0x00, 0x00, 0x00, 0x00, 0x00, 0x00, 0x00, 
  0x00, 0x00, 0x00, 0x00, 0x00, 0x00, 0x00, 0x00, 0x00, 0x00, 0x00, 0x00, 
  0x00, 0x00, 0x00, 0x00, 0x00, 0x00, 0x00, 0x00, 0x00, 0x00, 0x00, 0x00, 
  0x00, 0x06, 0x00, 0x00, 0x00, 0x00, 0x00, 0x00, 0x00, 0x00, 0x00, 0x00, 
  0x00, 0x00, 0x00, 0x00, 0x00, 0x00, 0x00, 0x00, 0x00, 0x00, 0x00, 0x00, 
  0x00, 0x00, 0x00, 0x00, 0x00, 0x00, 0x00, 0x00, 0x00, 0x00, 0x00, 0x00, 
  0x00, 0x00, 0x00, 0x00, 0x00, 0x00, 0x00, 0x00, 0x00, 0x00, 0x0d, 0x00, 
  0x00, 0x00, 0x00, 0x00, 0x00, 0x00, 0x00, 0x00, 0x00, 0x00, 0x00, 0x00, 
  0x00, 0x00, 0x00, 0x00, 0x00, 0x00, 0x00, 0x00, 0x00, 0x00, 0x00, 0x00, 
  0x00, 0x00, 0x00, 0x00, 0x00, 0x00, 0x00, 0x00, 0x00, 0x00, 0x00, 0x00, 
  0x00, 0x00, 0x00, 0x00, 0x00, 0x00, 0x40, 0x08, 0x00, 0x00, 0x00, 0x00, 
  0x00, 0x00, 0x00, 0x00, 0x00, 0x00, 0x00, 0x00, 0x00, 0x00, 0x00, 0x00, 
  0x00, 0x00, 0x00, 0x00, 0x00, 0x00, 0x00, 0x00, 0x00, 0x00, 0x00, 0x00, 
  0x00, 0x00, 0x00, 0x00, 0x00, 0x00, 0x00, 0x00, 0x00, 0x00, 0x00, 0x00, 
  0x00, 0x00, 0x00, 0x00, 0x3f, 0x00, 0x20, 0x00, 0x00, 0x00, 0x00, 0x00, 
  0x00, 0x00, 0x00, 0x00, 0x00, 0x00, 0x00, 0x00, 0x00, 0x00, 0x00, 0x00, 
  0x00, 0x00, 0x00, 0x00, 0x00, 0x00, 0x00, 0x00, 0x00, 0x00, 0x00, 0x00, 
  0x00, 0x00, 0x00, 0x00, 0x00, 0x00, 0x00, 0x00, 0x00, 0x00, 0x00, 0x00, 
  0x00, 0x25, 0x00, 0x00, 0x00, 0x00, 0x00, 0x00, 0x00, 0x00, 0x00, 0x00, 
  0x00, 0x00, 0x00, 0x00, 0x00, 0x00, 0x00, 0x00, 0x00, 0x00, 0x00, 0x00, 
  0x00, 0x00, 0x00, 0x00, 0x00, 0x00, 0x00, 0x00, 0x00, 0x00, 0x00, 0x00, 
  0x00, 0x00, 0x00, 0x00, 0x00, 0x00, 0x00, 0x00, 0x00, 0x40, 0xfb, 0x00, 
  0x70, 0x00, 0x00, 0x00, 0x00, 0x00, 0x00, 0x00, 0x00, 0x00, 0x00, 0x00, 
  0x00, 0x00, 0x00, 0x00, 0x00, 0x00, 0x00, 0x00, 0x00, 0x00, 0x00, 0x00, 
  0x00, 0x00, 0x00, 0x00, 0x00, 0x00, 0x00, 0x00, 0x00, 0x00, 0x00, 0x00, 
  0x00, 0x00, 0x00, 0x00, 0x10, 0x00, 0xa0, 0x46, 0x01, 0x44, 0x00, 0x00, 
  0x00, 0x00, 0x00, 0x00, 0x00, 0x00, 0x00, 0x00, 0x00, 0x00, 0x00, 0x00, 
  0x00, 0x00, 0x00, 0x00, 0x00, 0x00, 0x00, 0x00, 0x00, 0x00, 0x00, 0x00, 
  0x00, 0x00, 0x00, 0x00, 0x00, 0x00, 0x00, 0x00, 0x00, 0x00, 0x00, 0x00, 
  0x00, 0xa0, 0x00, 0x09, 0xbd, 0x04, 0xf2, 0x00, 0x00, 0x00, 0x00, 0x00, 
  0x00, 0x00, 0x00, 0x00, 0x00, 0x00, 0x00, 0x00, 0x00, 0x00, 0x00, 0x00, 
  0x00, 0x00, 0x00, 0x00, 0x00, 0x00, 0x00, 0x00, 0x00, 0x00, 0x00, 0x00, 
  0x00, 0x00, 0x00, 0xd0, 0xbf, 0x00, 0x00, 0x00, 0x00, 0x00, 0xd0, 0x2a, 
  0xe4, 0xa6, 0xaa, 0x58, 0x00, 0x00, 0x00, 0x00, 0x00, 0x00, 0x00, 0x00, 
  0x00, 0x00, 0x00, 0x00, 0x00, 0x00, 0x00, 0x00, 0x00, 0x00, 0x00, 0x00, 
  0x00, 0x00, 0x00, 0x00, 0x00, 0x00, 0x00, 0x00, 0x00, 0x00, 0x00, 0x00, 
  0xfc, 0xff, 0x03, 0x00, 0x00, 0x00, 0x00, 0xa0, 0xd7, 0xba, 0x59, 0x2b, 
  0xe5, 0x00, 0x00, 0x00, 0x00, 0x00, 0x00, 0x00, 0x00, 0x00, 0x00, 0x00, 
  0x00, 0x00, 0x00, 0x00, 0x00, 0x00, 0x00, 0x00, 0x00, 0x00, 0x00, 0x00, 
  0x00, 0x00, 0x00, 0x00, 0x00, 0x00, 0x00, 0x00, 0x80, 0xff, 0xff, 0x0f, 
  0x00, 0x00, 0x00, 0x00, 0x40, 0x94, 0x57, 0x6b, 0x6a, 0xdd, 0x00, 0x00, 
  0x00, 0x00, 0x00, 0x00, 0x00, 0x00, 0x00, 0x00, 0x00, 0x00, 0x00, 0x00, 
  0x00, 0x00, 0x00, 0x00, 0x00, 0x00, 0x00, 0x00, 0x00, 0x00, 0x00, 0x00, 
  0x80, 0x01, 0x00, 0x00, 0x00, 0xe0, 0xff, 0xff, 0x1f, 0x00, 0x00, 0x00, 
  0x00, 0xa8, 0x7b, 0xba, 0xdf, 0xdd, 0xaa, 0x01, 0x00, 0x00, 0x00, 0x00, 
  0x00, 0x00, 0x00, 0x00, 0x00, 0x00, 0x00, 0x00, 0x00, 0x00, 0x00, 0x00, 
  0x00, 0x00, 0x00, 0x00, 0x00, 0x00, 0x00, 0x00, 0x00, 0xc0, 0x03, 0x00, 
  0x00, 0x00, 0xf0, 0xff, 0xff, 0x3f, 0x00, 0x00, 0x00, 0x00, 0xa0, 0xcd, 
  0xed, 0xfd, 0x57, 0xd5, 0x00, 0x00, 0x00, 0x00, 0x00, 0x00, 0x00, 0x00, 
  0x00, 0x00, 0x00, 0x00, 0x00, 0x00, 0x00, 0x00, 0x00, 0x00, 0x00, 0x00, 
  0x00, 0x00, 0x00, 0x00, 0x00, 0x00, 0xe0, 0x07, 0x00, 0x00, 0x00, 0xfc, 
  0xff, 0xff, 0x7f, 0x00, 0x00, 0x00, 0x00, 0x80, 0xba, 0x7e, 0x02, 0x7d, 
  0xab, 0x01, 0x00, 0x00, 0x00, 0x00, 0x00, 0x00, 0x00, 0x00, 0x00, 0x00, 
  0x00, 0x00, 0x00, 0x00, 0x00, 0x00, 0x00, 0x00, 0x00, 0x00, 0x00, 0x00, 
  0x00, 0x00, 0x00, 0xf0, 0x0f, 0x00, 0x00, 0x00, 0xfe, 0xff, 0xff, 0xff, 
  0x00, 0x00, 0x00, 0xfd, 0x7f, 0xea, 0x07, 0x00, 0xe0, 0x5a, 0x03, 0x00, 
  0x00, 0x00, 0x00, 0x00, 0x00, 0x00, 0x00, 0x00, 0x00, 0x00, 0x00, 0x00, 
  0x00, 0x00, 0x00, 0x00, 0x00, 0x00, 0x00, 0x00, 0x00, 0x00, 0x00, 0x00, 
  0xf8, 0x17, 0x00, 0x00, 0x80, 0xff, 0xff, 0xff, 0xff, 0x01, 0x00, 0xd0, 
  0xff, 0xff, 0xf7, 0x01, 0x20, 0x00, 0xe7, 0x02, 0x00, 0x00, 0x00, 0x00, 
  0x00, 0x00, 0x00, 0x00, 0x00, 0x00, 0x00, 0x00, 0x00, 0x00, 0x00, 0x00, 
  0x00, 0x00, 0x00, 0x00, 0x00, 0x00, 0x00, 0x00, 0x00, 0xfc, 0x17, 0x00, 
  0x00, 0x80, 0xff, 0x2f, 0xf4, 0xff, 0x01, 0x00, 0xf8, 0xff, 0xff, 0x5f, 
  0x00, 0x00, 0x08, 0x99, 0x02, 0x00, 0x00, 0x00, 0x00, 0x00, 0x00, 0x00, 
  0x00, 0x00, 0x00, 0x00, 0x00, 0x00, 0x00, 0x00, 0x00, 0x00, 0x00, 0x00, 
  0x00, 0x00, 0x00, 0x00, 0x00, 0x00, 0xfe, 0x5b, 0x00, 0x00, 0xe0, 0xff, 
  0xaf, 0x9b, 0xff, 0x07, 0x00, 0xfe, 0xff, 0xff, 0x7f, 0x48, 0x00, 0x01, 
  0x6c, 0x07, 0x00, 0x00, 0x00, 0x00, 0x00, 0x00, 0x00, 0x00, 0x00, 0x00, 
  0x00, 0x00, 0x00, 0x00, 0x00, 0x00, 0x00, 0x00, 0x00, 0x00, 0x00, 0x00, 
  0x00, 0x00, 0x00, 0xfe, 0x15, 0x00, 0x00, 0xe0, 0xff, 0x2f, 0x60, 0xfd, 
  0x03, 0x80, 0xff, 0xff, 0xff, 0xff, 0x00, 0x42, 0x20, 0x51, 0x0c, 0x00, 
  0x00, 0x00, 0x00, 0x00, 0x00, 0x00, 0x00, 0x00, 0x00, 0x00, 0x00, 0x00, 
  0x00, 0x00, 0x00, 0x00, 0x00, 0x00, 0x00, 0x00, 0x00, 0x00, 0x00, 0x80, 
  0xff, 0x0b, 0x00, 0x00, 0xf8, 0xff, 0x4b, 0x00, 0xf8, 0x0d, 0xc0, 0xff, 
  0xff, 0xff, 0xff, 0x01, 0x08, 0x04, 0xe0, 0x33, 0x40, 0x00, 0x00, 0x00, 
  0x00, 0x00, 0x00, 0x00, 0x00, 0x00, 0x00, 0x00, 0x00, 0x00, 0x00, 0x00, 
  0x00, 0x00, 0x00, 0x00, 0x00, 0x00, 0x00, 0x00, 0x80, 0xff, 0x0c, 0x00, 
  0x00, 0xfc, 0xff, 0x35, 0x00, 0xf8, 0x05, 0xf0, 0xff, 0xff, 0xff, 0xff, 
  0x03, 0x00, 0x40, 0x04, 0x9d, 0x36, 0x00, 0x00, 0x00, 0x00, 0x00, 0x00, 
  0x00, 0x00, 0x00, 0x00, 0x00, 0x00, 0x00, 0x00, 0x00, 0x00, 0x00, 0x00, 
  0x00, 0x00, 0x00, 0x00, 0x00, 0xc0, 0xff, 0x03, 0x00, 0x00, 0xfe, 0xbf, 
  0x0a, 0x00, 0xfc, 0x16, 0xf8, 0xff, 0xaf, 0xfd, 0xff, 0x17, 0x00, 0x00, 
  0xd0, 0x66, 0x39, 0x00, 0x00, 0x00, 0x00, 0x00, 0x00, 0x00, 0x00, 0x00, 
  0x00, 0x00, 0x00, 0x00, 0x00, 0x00, 0x00, 0x00, 0x00, 0x00, 0x00, 0x00, 
  0x00, 0x00, 0xe0, 0x7f, 0x06, 0x00, 0x00, 0xff, 0xab, 0x16, 0x00, 0xfc, 
  0x02, 0xfe, 0xff, 0x6f, 0xca, 0xff, 0x87, 0x00, 0x08, 0x01, 0x5d, 0x3b, 
  0x00, 0x00, 0x00, 0x00, 0x00, 0x00, 0x00, 0x00, 0x00, 0x00, 0x00, 0x00, 
  0x00, 0x00, 0x00, 0x00, 0x00, 0x00, 0x00, 0x00, 0x00, 0x00, 0x00, 0xf0, 
  0xbf, 0x01, 0x00, 0x80, 0xff, 0x6a, 0x01, 0x00, 0xfe, 0x06, 0xff, 0xff, 
  0x97, 0x35, 0xff, 0x0f, 0x20, 0x01, 0x00, 0xaa, 0x16, 0x00, 0x00, 0x00, 
  0x00, 0x00, 0x00, 0x00, 0x00, 0x00, 0x00, 0x00, 0x00, 0x00, 0x00, 0x00, 
  0x00, 0x00, 0x00, 0x00, 0x00, 0x00, 0x00, 0x00, 0xf8, 0xff, 0x02, 0x00, 
  0xc0, 0x7f, 0x25, 0x00, 0x00, 0x7e, 0x82, 0xff, 0xff, 0xd3, 0xee, 0xfc, 
  0x17, 0x04, 0x40, 0x04, 0xd6, 0x1a, 0x00, 0x00, 0x00, 0x00, 0x00, 0x00, 
  0x00, 0x00, 0x00, 0x00, 0x00, 0x00, 0xf4, 0x0f, 0x00, 0x00, 0x00, 0x00, 
  0x00, 0x00, 0x00, 0x00, 0x00, 0xf8, 0x3f, 0x01, 0x00, 0xe0, 0xbf, 0x12, 
  0x00, 0x00, 0xbf, 0x83, 0xff, 0x7f, 0xbd, 0x32, 0xfc, 0x0f, 0x00, 0x20, 
  0x10, 0x5f, 0x1d, 0x00, 0x00, 0x00, 0x00, 0x00, 0x00, 0x00, 0x00, 0x00, 
  0x00, 0x00, 0x00, 0xfe, 0x7f, 0x00, 0x00, 0x00, 0x00, 0x00, 0x00, 0x00, 
  0x00, 0x00, 0xfc, 0x5f, 0x01, 0x00, 0xf0, 0xbf, 0x02, 0x00, 0x80, 0x5f, 
  0xc0, 0xff, 0x48, 0xa1, 0x3e, 0xfc, 0x37, 0x00, 0x00, 0x41, 0x77, 0x0f, 
  0x00, 0x00, 0x00, 0x00, 0x00, 0x00, 0x00, 0x00, 0x00, 0x00, 0x00, 0x80, 
  0xff, 0xff, 0x00, 0x00, 0x00, 0x00, 0x00, 0x00, 0x00, 0x00, 0x00, 0xfe, 
  0xaf, 0x00, 0x00, 0xf8, 0x7f, 0x01, 0x00, 0x80, 0xaf, 0xe1, 0xff, 0xd7, 
  0x6e, 0x15, 0xfc, 0x97, 0x20, 0x01, 0xf8, 0xc7, 0x0d, 0x00, 0x00, 0x00, 
  0x00, 0x00, 0x00, 0x00, 0x00, 0x00, 0x00, 0x00, 0xe0, 0xff, 0xff, 0x03, 
  0x00, 0x00, 0x00, 0x00, 0x00, 0x00, 0x00, 0x00, 0xff, 0xff, 0x00, 0x00, 
  0xfc, 0xbf, 0x00, 0x00, 0xc0, 0x5f, 0xf0, 0x7f, 0x09, 0xa8, 0x1a, 0xfc, 
  0x1b, 0x02, 0x10, 0xf8, 0x3f, 0x06, 0x00, 0x00, 0x00, 0x00, 0x00, 0x00, 
  0x00, 0x00, 0x00, 0x00, 0x00, 0xf8, 0xff, 0xff, 0x07, 0x00, 0x00, 0x00, 
  0x00, 0x00, 0x00, 0x00, 0x00, 0xf4, 0x0f, 0x00, 0x00, 0xfc, 0x5f, 0x01, 
  0x00, 0xe0, 0x37, 0xfc, 0xff, 0x06, 0x54, 0x0d, 0xfc, 0x07, 0x00, 0x08, 
  0xfc, 0xdf, 0x07, 0x00, 0x00, 0x00, 0x00, 0x00, 0x00, 0x00, 0x00, 0x00, 
  0x00, 0x00, 0xfc, 0xff, 0xff, 0x0f, 0x00, 0x00, 0x00, 0x00, 0x00, 0x00, 
  0x00, 0x00, 0xf0, 0x77, 0x00, 0x00, 0xfe, 0x7f, 0x00, 0x00, 0xf0, 0x27, 
  0xfc, 0x7f, 0x01, 0xa0, 0x0e, 0xfc, 0x1d, 0x10, 0x00, 0xfe, 0xbf, 0x06, 
  0x00, 0x00, 0x00, 0x00, 0x00, 0x00, 0x00, 0x00, 0x00, 0x00, 0x00, 0xff, 
  0xff, 0xff, 0x1f, 0x00, 0x00, 0x00, 0x00, 0x00, 0x00, 0x00, 0x00, 0xf8, 
  0x0f, 0x00, 0x00, 0xff, 0x5f, 0x00, 0x00, 0xf0, 0x09, 0xff, 0xff, 0x02, 
  0xd8, 0x0d, 0xfe, 0x93, 0x00, 0x01, 0xff, 0x4f, 0x05, 0x00, 0x00, 0x00, 
  0x00, 0x00, 0x00, 0x00, 0x00, 0x01, 0x00, 0xc0, 0xff, 0xff, 0xff, 0x3f, 
  0x00, 0x00, 0x00, 0x00, 0x00, 0x00, 0x00, 0x00, 0xf8, 0x37, 0x00, 0x80, 
  0xff, 0xff, 0x00, 0x00, 0xf8, 0x8f, 0xff, 0x7f, 0x01, 0x40, 0x05, 0xfe, 
  0x0d, 0x00, 0x00, 0xff, 0xf7, 0x06, 0xc0, 0x01, 0x00, 0x00, 0x00, 0x00, 
  0x00, 0x00, 0x03, 0x00, 0xe0, 0xff, 0xff, 0xff, 0x3f, 0x00, 0x00, 0x00, 
  0x00, 0x00, 0x00, 0x00, 0x00, 0xfc, 0x13, 0x00, 0x80, 0xff, 0xff, 0x01, 
  0x00, 0xfc, 0x88, 0xff, 0x7f, 0x01, 0x3c, 0x27, 0x7f, 0x02, 0x08, 0x90, 
  0xff, 0x0f, 0x07, 0xfc, 0x03, 0x00, 0x00, 0x00, 0x00, 0x00, 0x80, 0x07, 
  0x00, 0xf8, 0x3f, 0x3f, 0xfd, 0x7f, 0x00, 0x00, 0x00, 0x00, 0x00, 0x00, 
  0x00, 0x00, 0xf8, 0x17, 0x00, 0xc0, 0xff, 0xff, 0x07, 0x01, 0xbe, 0xc3, 
  0xff, 0xff, 0x00, 0x60, 0x06, 0xff, 0x02, 0x00, 0xc2, 0xff, 0xfb, 0x02, 
  0xff, 0x07, 0x00, 0x00, 0x08, 0x00, 0x00, 0x80, 0x0f, 0x00, 0xfc, 0x8f, 
  0xff, 0xfa, 0xff, 0x00, 0x00, 0x00, 0x00, 0x00, 0x00, 0x00, 0x00, 0xfc, 
  0x09, 0x00, 0xc0, 0xff, 0xff, 0xff, 0x07, 0x7f, 0xe6, 0xff, 0xff, 0x03, 
  0xd2, 0x85, 0x3f, 0x78, 0x01, 0xc0, 0xff, 0x05, 0xe0, 0xff, 0x0f, 0x00, 
  0x00, 0x06, 0x00, 0x00, 0xc0, 0x1f, 0x00, 0xff, 0xc3, 0xff, 0xe2, 0xff, 
  0x00, 0x00, 0x00, 0x00, 0x00, 0x00, 0x00, 0x00, 0xfe, 0x0d, 0x40, 0xe0, 
  0x7f, 0xfe, 0xff, 0x87, 0x5f, 0xe1, 0xbf, 0xff, 0x00, 0x28, 0xc6, 0x1f, 
  0xfe, 0x5f, 0xf0, 0xff, 0x2a, 0xfc, 0xff, 0x07, 0x00, 0x00, 0x07, 0x00, 
  0x00, 0xe0, 0x1f, 0xc0, 0xbf, 0xe0, 0x7f, 0xc0, 0xff, 0x01, 0x00, 0x00, 
  0x00, 0x00, 0x00, 0x00, 0x00, 0xfe, 0x06, 0xc0, 0xe0, 0x9f, 0xf9, 0xff, 
  0xc3, 0xdf, 0xe1, 0x1f, 0xff, 0x01, 0xc8, 0xe3, 0x07, 0xff, 0xff, 0xfb, 
  0xbf, 0x80, 0xff, 0xff, 0x3f, 0x00, 0xc0, 0x07, 0x00, 0x00, 0xe0, 0x67, 
  0xf0, 0xdf, 0xf8, 0x7f, 0x81, 0xff, 0x02, 0x00, 0x00, 0x00, 0x00, 0x00, 
  0x00, 0x00, 0xfe, 0x05, 0xc0, 0xe1, 0xbf, 0xf2, 0xff, 0xf1, 0x17, 0xf0, 
  0x7f, 0xff, 0x0f, 0x32, 0xf0, 0x9b, 0xff, 0xff, 0xff, 0x1f, 0xf4, 0xff, 
  0xff, 0x07, 0x00, 0xe0, 0x27, 0x00, 0x00, 0xf8, 0x1f, 0xf0, 0x17, 0xf8, 
  0xff, 0x80, 0xff, 0x01, 0x00, 0x00, 0x00, 0x00, 0x00, 0x00, 0x00, 0x7e, 
  0x05, 0xe0, 0xf3, 0x6f, 0x80, 0x7f, 0xf0, 0xeb, 0xf0, 0x8f, 0xfe, 0xff, 
  0xff, 0xfc, 0x35, 0xff, 0xff, 0xff, 0xa7, 0xff, 0xff, 0xff, 0x3b, 0x00, 
  0xf8, 0x37, 0x00, 0x00, 0xf8, 0x65, 0xf0, 0x75, 0xfe, 0x9f, 0x81, 0xff, 
  0x02, 0x00, 0x00, 0x00, 0x00, 0x00, 0x00, 0x00, 0xff, 0x02, 0xe0, 0xf3, 
  0xaf, 0x40, 0x10, 0xfc, 0x2b, 0xf0, 0x77, 0xf8, 0xff, 0x1f, 0xfe, 0x0e, 
  0xff, 0xff, 0xff, 0xff, 0xff, 0xff, 0xff, 0x0b, 0x00, 0xfc, 0x17, 0x00, 
  0x00, 0xfc, 0x15, 0xf0, 0x16, 0xff, 0x7f, 0x01, 0x7f, 0x03, 0x00, 0x00, 
  0x00, 0x00, 0x00, 0x00, 0x00, 0x7f, 0x01, 0xe0, 0xf3, 0x57, 0x00, 0x0f, 
  0xff, 0x2c, 0xf8, 0x0b, 0xf8, 0xff, 0x0f, 0x7f, 0x12, 0xfe, 0xff, 0xff, 
  0xff, 0xff, 0xff, 0xff, 0x0d, 0x00, 0xfe, 0x2b, 0x00, 0x00, 0xfe, 0x0d, 
  0x30, 0x09, 0xff, 0x9f, 0x80, 0xff, 0x02, 0x00, 0x00, 0x00, 0x00, 0x00, 
  0x00, 0x00, 0xbf, 0x02, 0xf0, 0xfb, 0x17, 0x00, 0x80, 0x7f, 0x09, 0xf8, 
  0x37, 0xe0, 0xff, 0xc3, 0xdf, 0x85, 0xfc, 0xff, 0xff, 0xff, 0xff, 0xe7, 
  0xff, 0x0a, 0x80, 0xff, 0x0f, 0x00, 0x00, 0x7f, 0x0b, 0x80, 0xc2, 0xff, 
  0x7f, 0x00, 0xbf, 0x02, 0x00, 0x00, 0x00, 0x00, 0x00, 0x00, 0x80, 0xff, 
  0x01, 0xf8, 0xf3, 0x3b, 0x00, 0xe0, 0xbf, 0x07, 0xf8, 0x0d, 0x80, 0xff, 
  0xe0, 0x2f, 0x02, 0x28, 0xff, 0xff, 0xff, 0xff, 0xf1, 0x3f, 0x13, 0xe0, 
  0xff, 0x11, 0x00, 0x80, 0xff, 0x04, 0x00, 0xc7, 0xff, 0x8f, 0x80, 0xbf, 
  0x02, 0x00, 0x00, 0x00, 0x00, 0x00, 0x00, 0xc0, 0x3f, 0x00, 0xf8, 0xf3, 
  0x07, 0x00, 0xf8, 0x9f, 0x02, 0xf8, 0x17, 0x00, 0x02, 0xf8, 0xaf, 0x11, 
  0x80, 0xff, 0xff, 0xff, 0x17, 0xf8, 0xdf, 0x09, 0xf0, 0xff, 0x1e, 0x00, 
  0xc0, 0xbf, 0x06, 0x80, 0xe0, 0xff, 0x6f, 0x80, 0xdf, 0x01, 0x00, 0x00, 
  0x00, 0x00, 0x00, 0x00, 0xc0, 0xdf, 0x00, 0xfc, 0xf1, 0x19, 0x00, 0xfe, 
  0x67, 0x00, 0xf8, 0x09, 0x00, 0x1c, 0xfe, 0xb7, 0x44, 0xc0, 0xff, 0xff, 
  0x57, 0xf8, 0xfd, 0x25, 0x02, 0xfc, 0xff, 0x05, 0x00, 0xe0, 0x7f, 0x03, 
  0x00, 0xf0, 0xff, 0x57, 0xc0, 0x2f, 0x00, 0x00, 0x00, 0x00, 0x00, 0x00, 
  0x00, 0xc0, 0x9f, 0x00, 0xff, 0xf3, 0x07, 0xc0, 0xff, 0xdd, 0x00, 0xf8, 
  0x07, 0x00, 0xc0, 0xff, 0x29, 0x00, 0xe1, 0xff, 0xff, 0xaf, 0x87, 0x1b, 
  0xd5, 0x00, 0xfe, 0x7f, 0x09, 0x00, 0xf8, 0xdf, 0x00, 0x00, 0xf8, 0xff, 
  0x2b, 0xe0, 0x6b, 0x00, 0x00, 0x00, 0x00, 0x00, 0x00, 0x00, 0xe0, 0x6f, 
  0x00, 0xff, 0xf6, 0x0b, 0xfc, 0x7f, 0x23, 0x00, 0xf8, 0x0b, 0x00, 0xf0, 
  0xff, 0x2a, 0x00, 0xf8, 0x5f, 0xfe, 0x5f, 0x69, 0x46, 0x2b, 0x00, 0xfe, 
  0x7f, 0x03, 0x00, 0xfc, 0x1f, 0x01, 0x00, 0xf8, 0xff, 0x15, 0xf0, 0x9b, 
  0x00, 0x00, 0x00, 0x00, 0x00, 0x00, 0x00, 0xf8, 0x2f, 0xe0, 0xff, 0xe3, 
  0xff, 0xff, 0xbf, 0x19, 0x00, 0xf8, 0x0f, 0x00, 0xfc, 0x3f, 0x9d, 0x14, 
  0xf8, 0x4f, 0xfb, 0x3f, 0xa0, 0x03, 0x05, 0x00, 0xfc, 0x5f, 0x01, 0x00, 
  0xfe, 0xef, 0x00, 0x00, 0xfc, 0xff, 0x16, 0xf8, 0x2d, 0x00, 0x00, 0x00, 
  0x00, 0x00, 0x00, 0x00, 0xfe, 0x07, 0xfa, 0x7f, 0xe2, 0xff, 0xff, 0xdf, 
  0x06, 0x00, 0xf0, 0x03, 0x80, 0xff, 0xdf, 0x0a, 0x00, 0xfc, 0xb3, 0xe8, 
  0x1f, 0xea, 0x83, 0x00, 0x00, 0xfc, 0xbf, 0x01, 0x80, 0xff, 0x17, 0x00, 
  0x00, 0xf8, 0xff, 0x09, 0x7e, 0x12, 0x00, 0x00, 0x00, 0x00, 0x00, 0x00, 
  0xc0, 0xff, 0xff, 0xff, 0xff, 0xc4, 0xff, 0xff, 0x53, 0x01, 0x00, 0xf0, 
  0xbf, 0xf8, 0xff, 0xa7, 0x3b, 0x00, 0xfe, 0x2f, 0xe2, 0xff, 0x90, 0x01, 
  0x00, 0x00, 0xf8, 0x4f, 0x00, 0xc0, 0xff, 0x77, 0x00, 0x00, 0xf8, 0x7f, 
  0x85, 0xbf, 0x06, 0x00, 0x00, 0x00, 0x00, 0x00, 0x00, 0xf0, 0xff, 0xff, 
  0xff, 0x9f, 0x83, 0xff, 0x7f, 0x5d, 0x00, 0x00, 0xe0, 0xff, 0xff, 0xff, 
  0x59, 0x6a, 0x09, 0xff, 0xa8, 0x80, 0x7f, 0xea, 0x01, 0x00, 0x00, 0xfc, 
  0xb7, 0x00, 0xf0, 0xff, 0x0b, 0x00, 0x00, 0xf8, 0x3f, 0xe0, 0x9f, 0x09, 
  0x00, 0x00, 0x00, 0x00, 0x00, 0x00, 0xf8, 0xff, 0xff, 0xff, 0xff, 0x80, 
  0xff, 0xbf, 0x25, 0x00, 0x00, 0xc0, 0xff, 0xff, 0x7f, 0xcd, 0x7f, 0x80, 
  0x7f, 0x0f, 0x90, 0x7f, 0x51, 0x01, 0x00, 0x00, 0xfc, 0x57, 0x00, 0xf8, 
  0xff, 0x15, 0x00, 0x00, 0xec, 0x1f, 0xfe, 0x6f, 0x02, 0x00, 0x00, 0x00, 
  0x00, 0x00, 0x00, 0xfc, 0xff, 0xff, 0xff, 0x87, 0x00, 0xfe, 0x45, 0x05, 
  0x00, 0x00, 0x80, 0xff, 0xff, 0xaf, 0xf6, 0xff, 0xc0, 0xff, 0x00, 0x0a, 
  0xff, 0xdd, 0x00, 0x00, 0x00, 0xfe, 0x29, 0x00, 0xfe, 0xff, 0x0d, 0x00, 
  0x00, 0xf0, 0xef, 0xff, 0xa3, 0x01, 0x00, 0x00, 0x00, 0x00, 0x00, 0x00, 
  0xfe, 0xff, 0xff, 0xff, 0xbd, 0x00, 0x04, 0xbd, 0x02, 0x00, 0x00, 0x00, 
  0xfe, 0xff, 0x5b, 0x01, 0xbf, 0xf1, 0x9f, 0x93, 0x40, 0xfe, 0xf2, 0x00, 
  0x00, 0x00, 0xff, 0x0b, 0x00, 0xfe, 0xff, 0x0a, 0x00, 0x00, 0xf0, 0xff, 
  0xff, 0x5c, 0x00, 0x00, 0x00, 0x00, 0x00, 0x00, 0x00, 0xfc, 0xff, 0xff, 
  0xff, 0x25, 0x00, 0x78, 0x03, 0x00, 0x00, 0x00, 0x00, 0xe8, 0x6f, 0xd2, 
  0x00, 0xff, 0xf0, 0x77, 0x04, 0x00, 0xfc, 0x4d, 0x00, 0x00, 0x00, 0xff, 
  0x14, 0x00, 0xff, 0xff, 0x05, 0x00, 0x00, 0xf8, 0xff, 0x7f, 0x03, 0x00, 
  0x00, 0x00, 0x00, 0x00, 0x00, 0x00, 0xfe, 0xff, 0xff, 0x1f, 0x16, 0x00, 
  0x80, 0x00, 0x00, 0x00, 0x00, 0x00, 0x28, 0xb0, 0x2d, 0x80, 0x7d, 0xfc, 
  0x5f, 0x23, 0x11, 0xfc, 0xe7, 0x00, 0x00, 0x80, 0x7f, 0x06, 0x80, 0xff, 
  0x7f, 0x06, 0x10, 0x00, 0xf8, 0xff, 0xbf, 0x1d, 0x00, 0x00, 0x00, 0x00, 
  0x00, 0x00, 0x00, 0xfc, 0xff, 0xff, 0xd2, 0x09, 0x00, 0x00, 0x00, 0x00, 
  0x00, 0x00, 0x00, 0x80, 0x4f, 0x02, 0x00, 0x06, 0xfe, 0x4f, 0x00, 0x44, 
  0xfa, 0xbb, 0x01, 0x00, 0xc0, 0xbf, 0x01, 0x80, 0xff, 0xbf, 0x01, 0xf8, 
  0x00, 0xfc, 0xff, 0x47, 0x02, 0x00, 0x00, 0x00, 0x00, 0x00, 0x00, 0x00, 
  0xfe, 0xff, 0x4b, 0xad, 0x02, 0x00, 0x00, 0x00, 0x00, 0x00, 0x00, 0x00, 
  0x00, 0x80, 0x00, 0x00, 0xcc, 0xff, 0x9f, 0x88, 0x80, 0xf0, 0x4b, 0x01, 
  0x0c, 0xe0, 0x5f, 0x03, 0xc0, 0xcf, 0x7f, 0x03, 0xfc, 0x0f, 0xfe, 0xff, 
  0xbd, 0x00, 0x00, 0x00, 0x00, 0x00, 0x00, 0x00, 0x00, 0xff, 0x2f, 0x5a, 
  0x13, 0x00, 0x00, 0x00, 0x00, 0x00, 0x00, 0x00, 0x00, 0x00, 0x00, 0x00, 
  0x00, 0x9d, 0xff, 0x37, 0x20, 0x14, 0xf0, 0x57, 0x03, 0x3f, 0xf0, 0xaf, 
  0x00, 0xf0, 0xe7, 0xbf, 0x00, 0xfe, 0xff, 0xff, 0x7f, 0x62, 0x00, 0x00, 
  0x00, 0x00, 0x00, 0x00, 0x00, 0x00, 0xff, 0xd7, 0xad, 0x08, 0x00, 0x00, 
  0x00, 0x00, 0x00, 0x00, 0x00, 0x00, 0x00, 0x00, 0x00, 0x00, 0xf4, 0xff, 
  0x57, 0x85, 0x80, 0xea, 0x7f, 0x81, 0xff, 0xf8, 0x5f, 0x00, 0xf8, 0xf3, 
  0x9f, 0x00, 0xfc, 0xff, 0xff, 0x9f, 0x1b, 0x00, 0x00, 0x00, 0x00, 0x00, 
  0x00, 0x00, 0x00, 0xff, 0x35, 0x00, 0x00, 0x00, 0x00, 0x00, 0x00, 0x00, 
  0x00, 0x00, 0x00, 0x00, 0x00, 0x00, 0x00, 0x5a, 0xff, 0x2b, 0x00, 0x24, 
  0xc2, 0x9f, 0x87, 0xff, 0xfc, 0x67, 0x00, 0xfe, 0xf1, 0x6f, 0x01, 0xf8, 
  0xff, 0xff, 0x6b, 0x05, 0x00, 0x00, 0x00, 0x00, 0x00, 0x00, 0x00, 0x00, 
  0xfe, 0x0b, 0x00, 0x00, 0x00, 0x00, 0x00, 0x00, 0x00, 0x00, 0x00, 0x00, 
  0x00, 0x00, 0x00, 0x00, 0xd4, 0x7a, 0x0a, 0x50, 0xc9, 0xdc, 0xff, 0xc6, 
  0x7f, 0xfc, 0x0f, 0x00, 0xff, 0xf8, 0x5f, 0x00, 0xf8, 0xff, 0x7f, 0x4a, 
  0x00, 0x00, 0x00, 0x00, 0x00, 0x00, 0x00, 0x00, 0x00, 0xbe, 0x14, 0x00, 
  0x00, 0x00, 0x00, 0x00, 0x00, 0x00, 0x00, 0x00, 0x00, 0x00, 0x00, 0x00, 
  0x00, 0x30, 0xc7, 0x59, 0x05, 0x22, 0xab, 0x7f, 0xe1, 0x3f, 0xff, 0x33, 
  0xc0, 0xbf, 0xf8, 0x6f, 0x00, 0xe0, 0xbf, 0xbf, 0x35, 0x00, 0x00, 0x00, 
  0x00, 0x00, 0x00, 0x00, 0x00, 0x00, 0xd8, 0x0e, 0x00, 0x00, 0x00, 0x00, 
  0x00, 0x00, 0x00, 0x00, 0x00, 0x00, 0x00, 0x00, 0x00, 0x00, 0xdc, 0x5a, 
  0xae, 0x52, 0xb9, 0x3b, 0xff, 0xf1, 0x1f, 0xff, 0x1b, 0xe0, 0x5f, 0xfc, 
  0x27, 0x00, 0x80, 0xc7, 0xdf, 0x02, 0x00, 0x00, 0x00, 0x00, 0x00, 0x00, 
  0x00, 0x00, 0x00, 0xa0, 0x01, 0x00, 0x00, 0x00, 0x00, 0x00, 0x00, 0x00, 
  0x00, 0x00, 0x00, 0x00, 0x00, 0x00, 0x00, 0xd2, 0x6d, 0x91, 0x2a, 0xa5, 
  0x5e, 0xfe, 0xff, 0x8f, 0xff, 0x0d, 0xf0, 0x6f, 0xfc, 0x17, 0x00, 0x40, 
  0xe0, 0x3f, 0x01, 0x00, 0x00, 0x00, 0x00, 0x00, 0x00, 0x00, 0x00, 0x00, 
  0x20, 0x02, 0x00, 0x00, 0x00, 0x00, 0x00, 0x00, 0x00, 0x00, 0x00, 0x00, 
  0x00, 0x00, 0x00, 0x00, 0x34, 0x49, 0x77, 0xed, 0x6e, 0x0d, 0xfc, 0xff, 
  0xc7, 0xff, 0x01, 0xfc, 0x2b, 0xfe, 0x3b, 0x30, 0x00, 0xf3, 0xcf, 0x00, 
  0x00, 0x00, 0x00, 0x00, 0x00, 0x00, 0x00, 0x00, 0x00, 0x40, 0x00, 0x00, 
  0x00, 0x00, 0x00, 0x00, 0x00, 0x00, 0x00, 0x00, 0x00, 0x00, 0x00, 0x00, 
  0x80, 0xd4, 0xf7, 0x8c, 0x2a, 0xd9, 0x07, 0xf8, 0xff, 0xe7, 0xff, 0x0f, 
  0xff, 0x1b, 0xfe, 0x07, 0x3c, 0x00, 0xf0, 0x87, 0x00, 0x00, 0x00, 0x00, 
  0x00, 0x00, 0x00, 0x00, 0x00, 0x00, 0x00, 0x00, 0x00, 0x00, 0x00, 0x00, 
  0x00, 0x00, 0x00, 0x00, 0x00, 0x00, 0x00, 0x00, 0x00, 0x00, 0x6a, 0x18, 
  0xf7, 0xaa, 0x6f, 0x01, 0xc0, 0xff, 0xe2, 0xff, 0xc1, 0xff, 0x14, 0xff, 
  0x15, 0x1f, 0x00, 0xf8, 0xe3, 0x01, 0x00, 0x00, 0x00, 0x00, 0x00, 0x00, 
  0x00, 0x00, 0x00, 0x00, 0x00, 0x00, 0x00, 0x00, 0x00, 0x00, 0x00, 0x00, 
  0x00, 0x00, 0x00, 0x00, 0x00, 0x00, 0x40, 0x9b, 0xe7, 0x50, 0xeb, 0xd4, 
  0x03, 0xa0, 0x7f, 0xf1, 0xff, 0xff, 0x3f, 0x97, 0xff, 0x81, 0x1f, 0x01, 
  0xfc, 0xf1, 0x00, 0x00, 0x00, 0x00, 0x00, 0x00, 0x00, 0x00, 0x00, 0x00, 
  0x00, 0x00, 0x00, 0x00, 0x00, 0x00, 0x00, 0x00, 0x00, 0x00, 0x00, 0x00, 
  0x00, 0x00, 0x00, 0x80, 0x6a, 0x9d, 0xbf, 0xbf, 0xbb, 0x00, 0x00, 0xc4, 
  0xf2, 0xff, 0xff, 0xef, 0x84, 0xff, 0xe2, 0xcf, 0x00, 0xfc, 0xfd, 0x00, 
  0x00, 0x00, 0x00, 0x00, 0x00, 0x00, 0x00, 0x00, 0x00, 0x00, 0x00, 0x00, 
  0x00, 0x00, 0x00, 0x00, 0x00, 0x00, 0x00, 0x00, 0x00, 0x00, 0x00, 0x00, 
  0x68, 0xb7, 0x62, 0x6f, 0x6a, 0xd7, 0x81, 0x00, 0xb8, 0xf1, 0xff, 0xff, 
  0x17, 0x81, 0xff, 0xf8, 0x37, 0x00, 0xfe, 0xff, 0x0a, 0x00, 0x00, 0x00, 
  0x00, 0x00, 0x00, 0x00, 0x00, 0x00, 0x00, 0x00, 0x00, 0x00, 0x00, 0x00, 
  0x00, 0x00, 0x00, 0x00, 0x00, 0x00, 0x00, 0x00, 0x00, 0x90, 0xc9, 0xdd, 
  0x00, 0xa0, 0x7d, 0x55, 0x04, 0x00, 0xf8, 0xff, 0xff, 0xfb, 0xc0, 0xff, 
  0xff, 0xaf, 0x00, 0xfe, 0x7f, 0x06, 0x00, 0x00, 0x00, 0x00, 0x00, 0x00, 
  0x00, 0x00, 0x00, 0x00, 0x00, 0x00, 0x00, 0x00, 0x00, 0x00, 0x00, 0x00, 
  0x00, 0x00, 0x00, 0x00, 0x00, 0x00, 0x64, 0x36, 0x72, 0x00, 0x00, 0xda, 
  0x23, 0x11, 0x00, 0xf0, 0xff, 0x7f, 0x04, 0xc0, 0xff, 0xff, 0x53, 0x00, 
  0xff, 0xbf, 0x01, 0x00, 0x00, 0x00, 0x00, 0x00, 0x00, 0x00, 0x00, 0x00, 
  0x00, 0x00, 0x00, 0x00, 0x00, 0x00, 0x00, 0x00, 0x00, 0x00, 0x00, 0x00, 
  0x00, 0x00, 0x00, 0xe8, 0xcd, 0x6e, 0x00, 0x00, 0xe0, 0x4b, 0x06, 0x00, 
  0xf8, 0xff, 0xdf, 0x1b, 0xe0, 0xff, 0xff, 0x1f, 0x00, 0xff, 0xbf, 0x02, 
  0x00, 0x00, 0x00, 0x00, 0x00, 0x00, 0x00, 0x00, 0x00, 0x00, 0x00, 0x00, 
  0x00, 0x00, 0x00, 0x00, 0x00, 0x00, 0x00, 0x00, 0x00, 0x00, 0x00, 0x00, 
  0x7a, 0x73, 0x35, 0x00, 0x00, 0x08, 0x95, 0x20, 0x00, 0xf0, 0xff, 0xbf, 
  0x04, 0xf0, 0xff, 0xff, 0x20, 0x00, 0xff, 0x4f, 0x03, 0x00, 0x00, 0x00, 
  0x00, 0x00, 0x00, 0x00, 0x00, 0x00, 0x00, 0x00, 0x00, 0x00, 0x00, 0x00, 
  0x00, 0x00, 0x00, 0x00, 0x00, 0x00, 0x00, 0x00, 0x00, 0xb5, 0x1d, 0x33, 
  0x00, 0x00, 0xd4, 0x02, 0x94, 0x00, 0xe0, 0xff, 0xc7, 0x02, 0xf0, 0xff, 
  0x7f, 0x1f, 0x00, 0xff, 0xb3, 0x00, 0x00, 0x00, 0x00, 0x00, 0x00, 0x00, 
  0x00, 0x00, 0x00, 0x00, 0x00, 0x00, 0x00, 0x00, 0x00, 0x00, 0x00, 0x00, 
  0x00, 0x00, 0x00, 0x00, 0x00, 0x80, 0x7c, 0xd5, 0x1c, 0x00, 0x00, 0x55, 
  0x6a, 0x03, 0x00, 0xe0, 0x7f, 0x39, 0x00, 0xf0, 0xff, 0xbf, 0x02, 0x00, 
  0xff, 0x5a, 0x00, 0x00, 0x00, 0x00, 0x00, 0x00, 0x00, 0x00, 0x00, 0x00, 
  0x00, 0x00, 0x00, 0x00, 0x00, 0x00, 0x00, 0x00, 0x00, 0x00, 0x00, 0x00, 
  0x00, 0x00, 0x00, 0xdf, 0xb6, 0x1f, 0x00, 0x80, 0x92, 0x88, 0xa8, 0x00, 
  0x80, 0xdf, 0x42, 0x00, 0xf0, 0xff, 0xd7, 0x02, 0x00, 0xbf, 0x06, 0x00, 
  0x00, 0x00, 0x00, 0x00, 0x00, 0x00, 0x00, 0x00, 0x00, 0x00, 0x00, 0x00, 
  0x00, 0x00, 0x00, 0x00, 0x00, 0x00, 0x00, 0x00, 0x00, 0x00, 0x00, 0x40, 
  0xb6, 0x55, 0x08, 0x00, 0xa0, 0x24, 0x2b, 0x09, 0x00, 0x00, 0xa5, 0x16, 
  0x00, 0xe0, 0xff, 0xad, 0x00, 0x00, 0xae, 0x0d, 0x00, 0x00, 0x00, 0x00, 
  0x00, 0x00, 0x00, 0x00, 0x00, 0x00, 0x00, 0x00, 0x00, 0x00, 0x00, 0x00, 
  0x00, 0x00, 0x00, 0x00, 0x00, 0x00, 0x00, 0x00, 0x00, 0xdf, 0xee, 0x0f, 
  0x00, 0xa8, 0xda, 0x90, 0x44, 0x00, 0x00, 0x58, 0x01, 0x00, 0xc0, 0x7f, 
  0x57, 0x00, 0x00, 0xa0, 0x00, 0x00, 0x00, 0x00, 0x00, 0x00, 0x00, 0x00, 
  0x00, 0x00, 0x00, 0x00, 0x00, 0x00, 0x00, 0x00, 0x00, 0x00, 0x00, 0x00, 
  0x00, 0x00, 0x00, 0x00, 0x00, 0xa0, 0x77, 0x3b, 0x06, 0x00, 0x54, 0x25, 
  0x4d, 0x12, 0x01, 0x00, 0x24, 0x00, 0x00, 0x00, 0x55, 0x19, 0x00, 0x00, 
  0x30, 0x00, 0x00, 0x00, 0x00, 0x00, 0x00, 0x00, 0x00, 0x00, 0x00, 0x00, 
  0x00, 0x00, 0x00, 0x00, 0x00, 0x00, 0x00, 0x00, 0x00, 0x00, 0x00, 0x00, 
  0x00, 0x00, 0x40, 0xfd, 0xa6, 0x07, 0x00, 0x55, 0x4d, 0x92, 0xa4, 0x00, 
  0x00, 0x00, 0x00, 0x00, 0x00, 0x5a, 0x03, 0x00, 0x00, 0x40, 0x00, 0x00, 
  0x00, 0x00, 0x00, 0x00, 0x00, 0x00, 0x00, 0x00, 0x00, 0x00, 0x00, 0x00, 
  0x00, 0x00, 0x00, 0x00, 0x00, 0x00, 0x00, 0x00, 0x00, 0x00, 0x00, 0xa0, 
  0xee, 0x79, 0x03, 0x00, 0xb5, 0x52, 0x25, 0x09, 0x00, 0x00, 0x00, 0x00, 
  0x00, 0x00, 0xa4, 0x00, 0x00, 0x00, 0x00, 0x00, 0x00, 0x00, 0x00, 0x00, 
  0x00, 0x00, 0x00, 0x00, 0x00, 0x00, 0x00, 0x00, 0x00, 0x00, 0x00, 0x00, 
  0x00, 0x00, 0x00, 0x00, 0x00, 0x00, 0x00, 0x00, 0x80, 0x7f, 0x97, 0x01, 
  0xc0, 0x9d, 0x2a, 0x91, 0xa4, 0x00, 0x00, 0x00, 0x00, 0x00, 0x00, 0x00, 
  0x00, 0x00, 0x00, 0x00, 0x00, 0x00, 0x00, 0x00, 0x00, 0x00, 0x00, 0x00, 
  0x00, 0x00, 0x00, 0x00, 0x00, 0x00, 0x00, 0x00, 0x00, 0x00, 0x00, 0x00, 
  0x00, 0x00, 0x00, 0x00, 0x00, 0x00, 0xbd, 0xed, 0x03, 0x30, 0x65, 0xcb, 
  0x54, 0x00, 0x00, 0x00, 0x00, 0x00, 0x00, 0x00, 0x00, 0x00, 0x00, 0x00, 
  0x00, 0x00, 0x00, 0x00, 0x00, 0x00, 0x00, 0x00, 0x00, 0x00, 0x00, 0x00, 
  0x00, 0x00, 0x00, 0x00, 0x00, 0x00, 0x00, 0x00, 0x00, 0x00, 0x00, 0x00, 
  0x00, 0x00, 0x00, 0xea, 0xb9, 0x81, 0xed, 0x5a, 0x32, 0x25, 0x2d, 0x00, 
  0x00, 0x00, 0x00, 0x00, 0x00, 0x00, 0x00, 0x00, 0x00, 0x00, 0x00, 0x00, 
  0x00, 0x00, 0x00, 0x00, 0x00, 0x00, 0x00, 0x00, 0x00, 0x00, 0x00, 0x00, 
  0x00, 0x00, 0x00, 0x00, 0x00, 0x00, 0x00, 0x00, 0x00, 0x00, 0x00, 0x00, 
  0x78, 0xe7, 0x7e, 0xbb, 0xd5, 0xad, 0x4a, 0x01, 0x00, 0x00, 0x00, 0x00, 
  0x00, 0x00, 0x00, 0x00, 0x00, 0x00, 0x00, 0x00, 0x00, 0x00, 0x00, 0x00, 
  0x00, 0x00, 0x00, 0x00, 0x00, 0x00, 0x00, 0x00, 0x00, 0x00, 0x00, 0x00, 
  0x00, 0x00, 0x00, 0x00, 0x00, 0x00, 0x00, 0x00, 0x00, 0x60, 0xdd, 0xd7, 
  0xcd, 0x4e, 0x4a, 0x29, 0x04, 0x00, 0x00, 0x00, 0x00, 0x00, 0x00, 0x00, 
  0x00, 0x00, 0x00, 0x00, 0x00, 0x00, 0x00, 0x00, 0x00, 0x00, 0x00, 0x00, 
  0x00, 0x00, 0x00, 0x00, 0x00, 0x00, 0x00, 0x00, 0x00, 0x00, 0x00, 0x00, 
  0x00, 0x00, 0x00, 0x00, 0x00, 0x00, 0x80, 0x75, 0x6d, 0x37, 0xb1, 0x25, 
  0x42, 0x00, 0x00, 0x00, 0x00, 0x00, 0x00, 0x00, 0x00, 0x00, 0x00, 0x00, 
  0x00, 0x00, 0x00, 0x00, 0x00, 0x00, 0x00, 0x00, 0x00, 0x00, 0x00, 0x00, 
  0x00, 0x00, 0x00, 0x00, 0x00, 0x00, 0x00, 0x00, 0x00, 0x00, 0x00, 0x00, 
  0x00, 0x00, 0x00, 0x00, 0xff, 0x7b, 0x01, 0x00, 0x00, 0x00, 0x00, 0x00, 
  0x00, 0x00, 0x00, 0x00, 0x00, 0x00, 0x00, 0x00, 0x00, 0x00, 0x00, 0x00, 
  0x00, 0x00, 0x00, 0x00, 0x00, 0x00, 0x00, 0x00, 0x00, 0x00, 0x00, 0x00, 
  0x00, 0x00, 0x00, 0x00, 0x00, 0x00, 0x00, 0x00, 0x00, 0x00, 0x00, 0x00, 
  0x00, 0xf4, 0xde, 0x01, 0x00, 0x00, 0x00, 0x00, 0x00, 0x00, 0x00, 0x00, 
  0x00, 0x00, 0x00, 0x00, 0x00, 0x00, 0x00, 0x00, 0x00, 0x00, 0x00, 0x00, 
  0x00, 0x00, 0x00, 0x00, 0x00, 0x00, 0x00, 0x00, 0x00, 0x00, 0x00, 0x00, 
  0x00, 0x00, 0x00, 0x00, 0x00, 0x00, 0x00, 0x00, 0x00, 0x00, 0x90, 0x57, 
  0x00, 0x00, 0x00, 0x00, 0x00, 0x00, 0x00, 0x00, 0x00, 0x00, 0x00, 0x00, 
  0x00, 0x00, 0x00, 0x00, 0x00, 0x00, 0x00, 0x00, 0x00, 0x00, 0x00, 0x00, 
  0x00, 0x00, 0x00, 0x00, 0x00, 0x00, 0x00, 0x00, 0x00, 0x00, 0x00, 0x00, 
  0x00, 0x00, 0x00, 0x00, 0x00, 0x00, 0x00, 0xe0, 0x1d, 0x00, 0x00, 0x00, 
  0x00, 0x00, 0x00, 0x00, 0x00, 0x00, 0x00, 0x00, 0x00, 0x00, 0x00, 0x00, 
  0x00, 0x00, 0x00, 0x00, 0x00, 0x00, 0x00, 0x00, 0x00, 0x00, 0x00, 0x00, 
  0x00, 0x00, 0x00, 0x00, 0x00, 0x00, 0x00, 0x00, 0x00, 0x00, 0x00, 0x00, 
  0x00, 0x00, 0x00, 0x00, 0x40, 0x03, 0x00, 0x00, 0x00, 0x00, 0x00, 0x00, 
  0x00, 0x00, 0x00, 0x00, 0x00, 0x00, 0x00, 0x00, 0x00, 0x00, 0x00, 0x00, 
  0x00, 0x00, 0x00, 0x00, 0x00, 0x00, 0x00, 0x00, 0x00, 0x00, 0x00, 0x00, 
  0x00, 0x00, 0x00, 0x00, 0x00, 0x00, 0x00, 0x00, 0x00, 0x00, 0x00, 0x00, 
  0x00, 0x00, 0x00, 0x00, 0x00, 0x00, 0x00, 0x00, 0x00, 0x00, 0x00, 0x00, 
  0x00, 0x00, 0x00, 0x00, 0x00, 0x00, 0x00, 0x00, 0x00, 0x00, 0x00, 0x00, 
  0x00, 0x00, 0x00, 0x00, 0x00, 0x00, 0x00, 0x00, 0x00, 0x00, 0x00, 0x00, 
  0x00, 0x00, 0x00, 0x00, 0x00, 0x00, 0x00, 0x00, 0x00, 0x00, 0x00, 0x00, 
  0x00, 0x00, 0x00, 0x00, 0x00, 0x00, 0x00, 0x00, 0x00, 0x00, 0x00, 0x00, 
  0x00, 0x00, 0x00, 0x00, 0x00, 0x00, 0x00, 0x00, 0x00, 0x00, 0x00, 0x00, 
  0x00, 0x00, 0x00, 0x00, 0x00, 0x00, 0x00, 0x00, 0x00, 0x00, 0x00, 0x00, 
  0x00, 0x00, 0x00, 0x00, 0x00, 0x00, 0x00, 0x00, 0x00, 0x00, 0x00, 0x00, 
  0x00, 0x00, 0x00, 0x00, 0x00, 0x00, 0x00, 0x00, 0x00, 0x00, 0x00, 0x00, 
  0x00, 0x00, 0x00, 0x00, 0x00, 0x00, 0x00, 0x00, 0x00, 0x00, 0x00, 0x00, 
  0x00, 0x00, 0x00, 0x00, 0x00, 0x00, 0x00, 0x00, 0x00, 0x00, 0x00, 0x00, 
  0x00, 0x00, 0x00, 0x00, 0x00, 0x00, 0x00, 0x00, 0x00, 0x00, 0x00, 0x00, 
  0x00, 0x00, 0x00, 0x00, 0x00, 0x00, 0x00, 0x00, 0x00, 0x00, 0x00, 0x00, 
  0x00, 0x00, 0x00, 0x00, 0x00, 0x00, 0x00, 0x00, 0x00, 0x00, 0x00, 0x00, 
  0x00, 0x00, 0x00, 0x00, 0x00, 0x00, 0x00, 0x00, 0x00, 0x00, 0x00, 0x00, 
  0x00, 0x00, 0x00, 0x00, 0x00, 0x00, 0x00, 0x00, 0x00, 0x00, 0x00, 0x00, 
  0x00, 0x00, 0x00, 0x00, 0x00, 0x00, 0x00, 0x00, 0x00, 0x00, 0x00, 0x00, 
  0x00, 0x00, 0x00, 0x00, 0x00, 0x00, 0x00, 0x00, 0x00, 0x00, 0x00, 0x00, 
  0x00, 0x00, 0x00, 0x00, 0x00, 0x00, 0x00, 0x00, 0x00, 0x00, 0x00, 0x00, 
  0x00, 0x00, 0x00, 0x00, 0x00, 0x00, 0x00, 0x00, 0x00, 0x00, 0x00, 0x00, 
  0x00, 0x00, 0x00, 0x00, 0x00, 0x00, 0x00, 0x00, 0x00, 0x00, 0x00, 0x00, 
  0x00, 0x00, 0x00, 0x00, 0x00, 0x00, 0x00, 0x00, 0x00, 0x00, 0x00, 0x00, 
  0x00, 0x00, 0x00, 0x00, 0x00, 0x00, 0x00, 0x00, 0x00, 0x00, 0x00, 0x00, 
  0x00, 0x00, 0x00, 0x00, 0x00, 0x00, 0x00, 0x00, 0x00, 0x00, 0x00, 0x00, 
  0x00, 0x00, 0x00, 0x00, 0x00, 0x00, 0x00, 0x00, 0x00, 0x00, 0x00, 0x00, 
  0x00, 0x00, 0x00, 0x00, 0x00, 0x00, 0x00, 0x00, 0x00, 0x00, 0x00, 0x00, 
  0x00, 0x00, 0x00, 0x00, 0x00, 0x00, 0x00, 0x00, 0x00, 0x00, 0x00, 0x00, 
  0x00, 0x00, 0x00, 0x00, 0x00, 0x00, 0x00, 0x00, 0x00, 0x00, 0x00, 0x00, 
  0x00, 0x00, 0x00, 0x00, 0x00, 0x00, 0x00, 0x00, 0x00, 0x00, 0x00, 0x00, 
  0x00, 0x00, 0x00, 0x00, 0x00, 0x00, 0x00, 0x00, 0x00, 0x00, 0x00, 0x00, 
  0x00, 0x00, 0x00, 0x00, 0x00, 0x00, 0x00, 0x00, 0x00, 0x00, 0x00, 0x00, 
  0x00, 0x00, 0x00, 0x00, 0x00, 0x00, 0x00, 0x00, 0x00, 0x00, 0x00, 0x00, 
  0x00, 0x00, 0x00, 0x00, 0x00, 0x00, 0x00, 0x00, 0x00, 0x00, 0x00, 0x00, 
  0x00, 0x00, 0x00, 0x00, 0x00, 0x00, 0x00, 0x00, 0x00, 0x00, 0x00, 0x00, 
  0x00, 0x00, 0x00, 0x00, 0x00, 0x00, 0x00, 0x00, 0x00, 0x00, 0x00, 0x00, 
  0x00, 0x00, 0x00, 0x00, 0x00, 0x00, 0x00, 0x00, 0x00, 0x00, 0x00, 0x00, 
  };
