/* XPM */
/*
 * Copyright (C) 1997 Yuuichi Teranishi <teranisi@isl.ntt.co.jp> 
 * Copyright (C) 1997 Kazuhiko Yamamoto <kazu@is.aist-nara.ac.jp>
 */
static char * mew_folder_xpm[] = {
"28 28 4 1",
" 	s backgroundToolBarColor	c None",
".	c black",
"X	c Gray60",
"o	c while",
"                            ",
"                 ...        ",
"                ..X..       ",
"                XX ..       ",
"                 ...X       ",
"                ..XX        ",
"                .X          ",
"                X           ",
"       ....    ..           ",
"      .oooo.   XX           ",
"     .oXXXXo..........      ",
"     .oXXXXXooooooooo.      ",
"     .oXXXXXXXXXXXXX..      ",
"     .oXXXXXXXXXXXXX..      ",
"     .oXXXXXXXXXXXXX..      ",
"     .oXXXXXXXXXXXXX..      ",
"     .oXXXXXXXXXXXXX..      ",
"     .oXXXXXXXXXXXXX..      ",
"     .oXXXXXXXXXXXXX..      ",
"     .o...............      ",
"     .................      ",
"                            ",
"          ...               ",
"         .      ..          ",
"         .  .. .  .         ",
"         .   . .  .         ",
"         .   . .  .         ",
"          ...   ..          "};
