#define sql_mode0.9b.xbm_width 64
#define sql_mode0.9b.xbm_height 64
static char sql_mode0.9b.xbm_bits[] = {
   0xf0, 0xff, 0xff, 0xff, 0xff, 0xff, 0xff, 0x07, 0xf0, 0xff, 0xff, 0xff,
   0xff, 0xff, 0xff, 0x07, 0x30, 0x00, 0x00, 0x00, 0x00, 0x00, 0x00, 0x06,
   0x30, 0x00, 0x00, 0x00, 0x00, 0x00, 0x00, 0x06, 0x30, 0x00, 0x00, 0x00,
   0x00, 0x00, 0x00, 0x06, 0x30, 0x00, 0x00, 0x00, 0x00, 0x00, 0x00, 0x06,
   0x30, 0xf8, 0x05, 0xf0, 0x03, 0xfe, 0x00, 0x06, 0x30, 0x1c, 0x07, 0x3c,
   0x0f, 0x38, 0x00, 0x06, 0x30, 0x0e, 0x06, 0x0e, 0x1c, 0x38, 0x00, 0x06,
   0x30, 0x0e, 0x04, 0x0f, 0x3c, 0x38, 0x00, 0x06, 0x30, 0x0e, 0x04, 0x07,
   0x38, 0x38, 0x00, 0x06, 0x30, 0x1e, 0x80, 0x07, 0x78, 0x38, 0x00, 0x06,
   0x30, 0x7e, 0x80, 0x03, 0x70, 0x38, 0x00, 0x06, 0x30, 0xfc, 0x81, 0x03,
   0x70, 0x38, 0x00, 0x06, 0x30, 0xf0, 0x87, 0x03, 0x70, 0x38, 0x00, 0x06,
   0x30, 0xe0, 0x87, 0x03, 0x70, 0x38, 0x00, 0x06, 0x30, 0x80, 0x8f, 0x03,
   0x70, 0x38, 0x00, 0x06, 0x30, 0x02, 0x8f, 0x07, 0x78, 0x38, 0x00, 0x06,
   0x30, 0x02, 0x0e, 0x07, 0x38, 0x38, 0x40, 0x06, 0x30, 0x06, 0x0e, 0x0f,
   0x3c, 0x38, 0x60, 0x06, 0x30, 0x0e, 0x06, 0x0e, 0x1c, 0x38, 0x30, 0x06,
   0x30, 0x1e, 0x07, 0x3c, 0x0f, 0x38, 0x38, 0x06, 0x30, 0xfa, 0x03, 0xf0,
   0x03, 0xfe, 0x3f, 0x06, 0x30, 0x00, 0x00, 0xe0, 0x01, 0x00, 0x00, 0x06,
   0x30, 0x00, 0x00, 0xc0, 0x03, 0x00, 0x00, 0x06, 0x30, 0x00, 0x00, 0xc0,
   0x07, 0x00, 0x00, 0x06, 0x30, 0x00, 0x00, 0x80, 0x1f, 0x00, 0x00, 0x06,
   0x30, 0x00, 0x00, 0x00, 0xfe, 0x00, 0x00, 0x06, 0x30, 0x00, 0x00, 0x00,
   0x00, 0x00, 0x00, 0x06, 0x30, 0x00, 0x00, 0x00, 0x00, 0x00, 0x00, 0x06,
   0x30, 0x00, 0x00, 0x00, 0x00, 0x00, 0x00, 0x06, 0x30, 0x1e, 0x1e, 0x3e,
   0xfc, 0xe1, 0x1f, 0x06, 0x30, 0x1c, 0x0e, 0x63, 0x18, 0xc3, 0x10, 0x06,
   0x30, 0x1c, 0x8e, 0xc1, 0x18, 0xc6, 0x10, 0x06, 0x30, 0x34, 0x8d, 0xc1,
   0x18, 0xc6, 0x04, 0x06, 0x30, 0x34, 0x8d, 0xc1, 0x18, 0xc6, 0x07, 0x06,
   0x30, 0xb4, 0x8c, 0xc1, 0x18, 0xc6, 0x04, 0x06, 0x30, 0xe4, 0x8c, 0xc1,
   0x18, 0xc6, 0x10, 0x06, 0x30, 0xe4, 0x8c, 0xc1, 0x18, 0xc6, 0x10, 0x06,
   0x30, 0x44, 0x0c, 0x63, 0x18, 0xc3, 0x18, 0x06, 0x30, 0x4e, 0x1e, 0x3e,
   0xfc, 0xe1, 0x1f, 0x06, 0x30, 0x00, 0x00, 0x00, 0x00, 0x00, 0x00, 0x06,
   0x30, 0x00, 0x00, 0x00, 0x00, 0x00, 0x00, 0x06, 0x30, 0x00, 0x00, 0x00,
   0x00, 0x00, 0x00, 0x06, 0x30, 0x00, 0x00, 0x00, 0x00, 0x00, 0x00, 0x06,
   0xf0, 0xff, 0xff, 0xff, 0xff, 0xff, 0xff, 0x07, 0xf0, 0xff, 0xff, 0xff,
   0xff, 0xff, 0xff, 0x07, 0x00, 0x00, 0x00, 0x00, 0x00, 0x00, 0x00, 0x00,
   0x00, 0x00, 0x00, 0x00, 0x00, 0x00, 0x00, 0x00, 0x00, 0x00, 0x00, 0x00,
   0x00, 0x00, 0x00, 0x00, 0x00, 0x00, 0x00, 0x00, 0x00, 0x00, 0x00, 0x00,
   0x00, 0x00, 0x00, 0x04, 0x00, 0x00, 0x00, 0x01, 0xe0, 0x01, 0x0f, 0x76,
   0x00, 0x00, 0x00, 0x03, 0x20, 0x81, 0x19, 0x62, 0x00, 0x20, 0x00, 0x02,
   0x30, 0x83, 0x19, 0x63, 0x00, 0x30, 0x00, 0x06, 0x30, 0x83, 0x19, 0xe3,
   0xc3, 0x79, 0x1e, 0x06, 0x30, 0x83, 0x19, 0x63, 0x26, 0x33, 0x33, 0x06,
   0x30, 0x03, 0x1f, 0x63, 0x36, 0x33, 0x30, 0x06, 0x30, 0x03, 0x0c, 0x63,
   0xf6, 0x33, 0x3e, 0x06, 0x30, 0x03, 0x06, 0x63, 0x36, 0xb0, 0x33, 0x06,
   0x20, 0x31, 0x07, 0x63, 0x76, 0x72, 0x33, 0x06, 0xe0, 0xb1, 0x01, 0xa2,
   0xe3, 0x61, 0x6e, 0x02, 0x00, 0x00, 0x00, 0x06, 0x00, 0x00, 0x00, 0x03,
   0x00, 0x00, 0x00, 0x04, 0x00, 0x00, 0x00, 0x01};
